<?xml version="1.0" encoding="UTF-8"?>
<svg height="250px" viewBox="0 0 633 250" version="1.1" xmlns="http://www.w3.org/2000/svg" xmlns:xlink="http://www.w3.org/1999/xlink">
    <g stroke="none" fill="none">
        <path d="M51.2710094,27 C33.0702098,60.3147422 21.8978768,114.822478 27.4149341,161.491399 C32.9319913,208.160321 56.1007242,221.824534 76.1314323,221.824534 C96.1621404,221.824534 134.152025,189.056799 141.758078,161.491399 C149.364131,133.926 149.364131,106.222145 128.708136,101.498163 C108.052141,96.7741824 93.7573685,119.121813 91.3130219,153.776486 C88.8686754,188.431158 114.466538,224.840991 145.191329,221.824534 C160.435615,220.3279 169.165165,215.023444 180,198.687264" id="Path" stroke="#18619D" stroke-width="35" stroke-linecap="round"></path>
        <path d="M217,169.794226 C233.797287,171.250897 249.261575,164.762933 260,157" id="Path" stroke="#2781CA" stroke-width="25" stroke-linecap="round" stroke-linejoin="round"></path>
        <path d="M298,139.487166 C324.08861,113.673636 341.546867,91.6638711 348.296989,69.9178594 C355.04667,48.1722837 356.579365,22 342.998895,22 C329.418424,22 322.62378,65.5687443 322.62378,91.664307 C322.62378,117.75987 313.285833,183.294399 302.382469,227.667111 C318.847421,171.481639 328.421314,161.554204 342.998895,145.473074 C357.576475,129.391944 365.730266,124.029899 379.039433,124.029899 C363.226923,126.48041 342.422024,139.973538 338.22811,168.517379 C334.034197,197.061221 340.960777,228.999845 371.481054,227.667111 C402.00133,226.334378 424.287306,193.98415 438.635547,131.807607 C424.613111,179.819522 427.047698,216.761188 458.911375,225.711973 C490.775052,234.662757 508.865179,208.557193 523.165491,185.272479 C537.465802,161.987766 552.160027,89.7979486 558.783304,22 C533.246549,93.9684327 510.687496,204.505239 540.998332,222.821966 C554.206047,230.80334 570.929703,229.390781 583.649687,219.738183 C596.776887,209.776568 606.072622,197.866131 612,176.487796" id="Path" stroke="#2781CA" stroke-width="25" stroke-linecap="round" stroke-linejoin="round"></path>
        <path d="M502,114 C539.488895,125.778805 572.204228,122.928377 603,115.837904" id="Path" stroke="#2781CA" stroke-width="25" stroke-linecap="round" stroke-linejoin="round"></path>
        <circle id="Oval" fill="#2781CA" fill-rule="nonzero" cx="448.5" cy="90.5" r="14.5"></circle>
    </g>
</svg>